HIERARCHY
ROOT root
{
	OFFSET 0.000000 0.000000 0.000000
	CHANNELS 6 Xposition Yposition Zposition Zrotation Yrotation Xrotation
	JOINT lhip
	{
		OFFSET 0.058581 -0.082280 -0.017664
		CHANNELS 3 Zrotation Yrotation Xrotation
		JOINT lknee
		{
			OFFSET 0.043451 -0.386469 0.008037
			CHANNELS 3 Zrotation Yrotation Xrotation
			JOINT lankle
			{
				OFFSET -0.014790 -0.426874 -0.037428
				CHANNELS 3 Zrotation Yrotation Xrotation
				JOINT ltoe
				{
					OFFSET 0.041054 -0.060286 0.122042
					CHANNELS 3 Zrotation Yrotation Xrotation
					End Site
					{
						OFFSET 0.000000 0.000000 0.000000
					}
				}
			}
		}
	}
	JOINT rhip
	{
		OFFSET -0.060310 -0.090513 -0.013543
		CHANNELS 3 Zrotation Yrotation Xrotation
		JOINT rknee
		{
			OFFSET -0.043257 -0.383688 -0.004843
			CHANNELS 3 Zrotation Yrotation Xrotation
			JOINT rankle
			{
				OFFSET 0.019056 -0.420046 -0.034562
				CHANNELS 3 Zrotation Yrotation Xrotation
				JOINT rtoe
				{
					OFFSET -0.034840 -0.062106 0.130323
					CHANNELS 3 Zrotation Yrotation Xrotation
					End Site
					{
						OFFSET 0.000000 0.000000 0.000000
					}
				}
			}
		}
	}
	JOINT lowerback
	{
		OFFSET 0.004439 0.124404 -0.038385
		CHANNELS 3 Zrotation Yrotation Xrotation
		JOINT upperback
		{
			OFFSET 0.004488 0.137956 0.026820
			CHANNELS 3 Zrotation Yrotation Xrotation
			JOINT chest
			{
				OFFSET -0.002265 0.056032 0.002855
				CHANNELS 3 Zrotation Yrotation Xrotation
				JOINT lowerneck
				{
					OFFSET -0.013390 0.211636 -0.033468
					CHANNELS 3 Zrotation Yrotation Xrotation
					JOINT upperneck
					{
						OFFSET 0.010113 0.088937 0.050410
						CHANNELS 3 Zrotation Yrotation Xrotation
						End Site
						{
							OFFSET 0.000000 0.000000 0.000000
						}
					}
				}
				JOINT lclavicle
				{
					OFFSET 0.071702 0.114000 -0.018898
					CHANNELS 3 Zrotation Yrotation Xrotation
					JOINT lshoulder
					{
						OFFSET 0.122921 0.045205 -0.019046
						CHANNELS 3 Zrotation Yrotation Xrotation
						JOINT lelbow
						{
							OFFSET 0.255332 -0.015649 -0.022946
							CHANNELS 3 Zrotation Yrotation Xrotation
							JOINT lwrist
							{
								OFFSET 0.265709 0.012698 -0.007375
								CHANNELS 3 Zrotation Yrotation Xrotation
								End Site
								{
									OFFSET 0.000000 0.000000 0.000000
								}
							}
						}
					}
				}
				JOINT rclavicle
				{
					OFFSET -0.082954 0.112472 -0.023707
					CHANNELS 3 Zrotation Yrotation Xrotation
					JOINT rshoulder
					{
						OFFSET -0.113228 0.046853 -0.008472
						CHANNELS 3 Zrotation Yrotation Xrotation
						JOINT relbow
						{
							OFFSET -0.260127 -0.014369 -0.031269
							CHANNELS 3 Zrotation Yrotation Xrotation
							JOINT rwrist
							{
								OFFSET -0.269108 0.006794 -0.006027
								CHANNELS 3 Zrotation Yrotation Xrotation
								End Site
								{
									OFFSET 0.000000 0.000000 0.000000
								}
							}
						}
					}
				}
			}
		}
	}
}
MOTION
Frames: 7
Frame Time: 0.033333
1.142596 -0.041615 0.997223 90.663120 0.788347 92.498258 7.377637 7.571816 -4.924416 -3.842689 3.862410 0.753244 -0.168414 10.906420 -2.615066 0.000000 -0.000000 0.000000 -5.198009 -4.853302 -6.165326 2.441270 -4.907151 0.615254 0.978440 -8.661200 -2.178182 0.000000 -0.000000 0.000000 0.802623 0.713588 9.794720 -0.290465 -1.625701 -10.763238 -1.670389 0.316950 -0.440180 2.111606 -5.695696 -7.185610 1.207904 -3.981548 7.991560 -26.718216 1.065115 -1.084625 -53.811379 -5.732671 21.120435 0.222057 -22.410694 16.328886 -9.634498 -14.011561 -1.052708 25.276257 3.725348 -0.096522 56.607614 6.351198 19.825254 -2.403222 22.684176 7.815983 11.776244 8.129703 -8.383595 
1.142616 -0.041486 0.997129 90.607189 0.752294 92.400053 7.332637 7.521251 -4.749936 -3.827251 3.786708 0.620560 -0.462521 11.132754 -2.506960 0.000000 -0.000000 0.000000 -5.244374 -4.853721 -6.108073 2.408756 -4.691614 0.679350 1.469784 -8.895732 -2.151807 0.000000 -0.000000 0.000000 0.807866 0.817785 10.143849 -0.389385 -1.613963 -11.378986 -1.678285 0.245126 -0.011386 2.012712 -5.730238 -7.261261 1.211038 -3.919033 7.940257 -26.380174 1.265510 -1.272977 -54.218375 -5.787599 21.332661 0.258109 -22.311990 16.665204 -9.463459 -14.077445 -1.338329 25.115247 3.653626 -0.198197 56.805460 6.404682 20.057422 -2.464086 22.730366 7.965689 11.728367 8.123383 -8.704235 
1.142756 -0.041474 0.997145 90.622622 0.759208 92.396670 7.340067 7.522144 -4.735635 -3.827944 3.775986 0.613734 -0.470393 11.128793 -2.500648 0.000000 -0.000000 0.000000 -5.234888 -4.877752 -6.093670 2.404151 -4.689064 0.683171 1.489882 -8.892493 -2.149610 0.000000 -0.000000 0.000000 0.789812 0.830270 10.100684 -0.395878 -1.613819 -11.334381 -1.681360 0.243513 -0.020165 1.958083 -5.622319 -7.260243 1.170773 -3.845355 7.828804 -26.335816 1.267111 -1.293008 -54.262824 -5.773452 21.332882 0.296748 -22.331018 16.649389 -9.524202 -14.053306 -1.325252 25.091272 3.632551 -0.216666 56.825991 6.410488 20.043262 -2.456692 22.786604 8.015856 11.792805 8.121684 -8.678745 
1.142743 -0.041481 0.997137 90.655345 0.764271 92.410216 7.337144 7.506645 -4.767682 -3.818829 3.774510 0.628519 -0.475860 11.120046 -2.496246 0.000000 -0.000000 0.000000 -5.224026 -4.885271 -6.109861 2.397854 -4.707117 0.696638 1.490217 -8.900547 -2.153988 0.000000 -0.000000 0.000000 0.769639 0.850453 10.088399 -0.401016 -1.610497 -11.313563 -1.681479 0.233412 -0.017149 1.934075 -5.493662 -7.330698 1.140086 -3.762040 7.732414 -26.284496 1.230450 -1.327113 -54.271998 -5.786014 21.334352 0.308871 -22.355230 16.616245 -9.528136 -14.051206 -1.307302 25.103199 3.655111 -0.228463 56.828438 6.430864 20.038913 -2.481906 22.791383 7.982853 11.793300 8.127867 -8.643981 
1.142719 -0.041502 0.997134 90.672634 0.767869 92.415922 7.338909 7.500018 -4.771984 -3.816496 3.767083 0.614395 -0.475928 11.120140 -2.491624 0.000000 -0.000000 0.000000 -5.218372 -4.893731 -6.118025 2.399016 -4.713910 0.704366 1.490437 -8.902745 -2.157336 0.000000 -0.000000 0.000000 0.757210 0.861374 10.094885 -0.402427 -1.605100 -11.312752 -1.673407 0.232671 -0.024286 1.922690 -5.402163 -7.377792 1.133836 -3.685406 7.704063 -26.257289 1.203348 -1.342552 -54.266035 -5.796956 21.333974 0.309186 -22.366129 16.612488 -9.521060 -14.056634 -1.295969 25.108368 3.667860 -0.231780 56.835875 6.438973 20.038235 -2.486859 22.776253 7.982604 11.797531 8.129105 -8.619738 
1.142691 -0.041554 0.997143 90.701389 0.773007 92.410415 7.347756 7.494971 -4.771782 -3.815296 3.747006 0.613166 -0.476710 11.118070 -2.481397 0.000000 -0.000000 0.000000 -5.209658 -4.904654 -6.111610 2.399107 -4.721250 0.713566 1.496408 -8.907142 -2.165291 0.000000 -0.000000 0.000000 0.742484 0.871946 10.116577 -0.404031 -1.599891 -11.330507 -1.659909 0.233468 -0.025381 1.914511 -5.275472 -7.442315 1.139317 -3.573201 7.715901 -26.229089 1.159821 -1.348818 -54.240223 -5.817515 21.323656 0.316739 -22.371128 16.609302 -9.497203 -14.069443 -1.300348 25.120026 3.690729 -0.226822 56.853954 6.448662 20.040682 -2.489086 22.746014 7.984623 11.803383 8.134524 -8.622887 
1.142635 -0.041614 0.997147 90.729827 0.773787 92.409272 7.347954 7.493215 -4.779560 -3.807651 3.734206 0.607182 -0.483641 11.107903 -2.467644 0.000000 -0.000000 0.000000 -5.206882 -4.916121 -6.110227 2.401426 -4.730107 0.718115 1.504722 -8.908320 -2.170412 0.000000 -0.000000 0.000000 0.729454 0.890983 10.105340 -0.401880 -1.600998 -11.309220 -1.650972 0.233586 -0.024872 1.909124 -5.148342 -7.469264 1.148523 -3.497488 7.705478 -26.201704 1.109695 -1.357425 -54.206709 -5.853505 21.306185 0.329852 -22.360219 16.590372 -9.480927 -14.075455 -1.277219 25.138257 3.717470 -0.215912 56.879006 6.468350 20.027441 -2.507473 22.750432 7.954356 11.752302 8.160355 -8.594553 
